<?xml version="1.0" standalone="no"?>
<!DOCTYPE svg PUBLIC "-//W3C//DTD SVG 20010904//EN"
 "http://www.w3.org/TR/2001/REC-SVG-20010904/DTD/svg10.dtd">
<svg version="1.0" xmlns="http://www.w3.org/2000/svg"
 width="512.000000pt" height="512.000000pt" viewBox="0 0 512.000000 512.000000"
 preserveAspectRatio="xMidYMid meet">
<metadata>
Created by potrace 1.16, written by Peter Selinger 2001-2019
</metadata>
<g transform="translate(0.000000,512.000000) scale(0.100000,-0.100000)"
fill="#000000" stroke="none">
<path d="M0 2560 l0 -2560 2560 0 2560 0 0 2560 0 2560 -2560 0 -2560 0 0
-2560z m3643 2115 c84 -22 135 -51 192 -109 183 -188 235 -607 135 -1090 -11
-54 -20 -104 -20 -111 0 -8 15 -17 33 -20 66 -14 286 -99 396 -152 220 -107
413 -260 498 -394 66 -106 88 -227 59 -335 -53 -198 -269 -402 -588 -553 -124
-59 -335 -141 -363 -141 -25 0 -28 -25 -11 -98 47 -205 67 -488 47 -652 -36
-292 -130 -464 -299 -547 -75 -37 -78 -38 -191 -38 -80 0 -136 6 -181 18 -216
59 -458 204 -695 414 l-89 80 -91 -79 c-308 -268 -598 -416 -850 -435 -256
-18 -433 128 -505 417 -16 62 -23 130 -27 255 -6 185 8 337 50 536 l23 107
-121 40 c-436 145 -760 383 -856 630 -29 75 -32 204 -6 279 87 249 448 502
915 642 54 16 72 26 68 36 -13 35 -56 280 -67 384 -13 127 -7 376 11 461 48
224 138 362 279 429 52 24 65 26 196 26 126 -1 149 -4 225 -29 216 -72 475
-233 685 -428 l61 -56 84 75 c387 342 754 503 1003 438z"/>
<path d="M3422 4475 c-172 -38 -426 -190 -646 -388 l-76 -68 109 -127 c91
-107 223 -276 281 -359 13 -19 35 -25 175 -42 137 -17 392 -60 462 -77 25 -7
25 -8 52 138 77 405 38 758 -98 881 -63 57 -135 69 -259 42z"/>
<path d="M1475 4466 c-179 -79 -234 -465 -134 -951 12 -55 22 -101 23 -103 2
-1 56 9 122 22 100 20 304 51 480 72 39 5 45 10 136 132 53 70 140 178 194
241 55 62 103 120 109 127 10 14 -40 64 -169 168 -159 128 -391 257 -522 290
-75 19 -198 20 -239 2z"/>
<path d="M2475 3778 c-117 -135 -198 -238 -193 -243 3 -3 129 -4 281 -3 l276
3 -88 110 c-48 61 -112 136 -142 168 l-54 58 -80 -93z"/>
<path d="M2187 3323 l-68 -4 -74 -114 c-96 -147 -194 -317 -290 -499 l-77
-146 82 -158 c85 -162 227 -404 311 -528 47 -70 48 -71 101 -77 69 -9 652 -9
750 -1 l74 7 66 101 c97 149 219 362 300 521 l71 139 -58 111 c-107 203 -237
424 -336 571 l-48 71 -98 6 c-97 7 -576 6 -706 0z m523 -363 c121 -48 214
-148 252 -273 17 -56 20 -86 15 -153 -9 -156 -93 -281 -236 -352 -73 -36 -78
-37 -185 -37 -100 0 -117 3 -170 28 -275 128 -342 476 -133 688 50 51 138 102
205 119 60 15 190 5 252 -20z"/>
<path d="M1735 3274 c-99 -15 -315 -55 -315 -58 0 -22 149 -421 155 -414 1 2
31 55 65 118 35 63 96 170 137 237 40 67 73 124 73 127 0 8 -6 7 -115 -10z"/>
<path d="M3260 3284 c0 -3 26 -47 57 -97 31 -51 94 -159 139 -241 l83 -149 21
48 c35 81 120 313 126 343 7 32 17 29 -266 77 -160 28 -160 27 -160 19z"/>
<path d="M1075 3119 c-333 -113 -608 -296 -686 -455 -34 -70 -32 -142 6 -212
97 -178 355 -349 708 -471 83 -29 119 -37 121 -28 31 106 144 404 204 538 l30
67 -68 158 c-37 88 -89 223 -116 301 -34 99 -54 143 -64 143 -8 0 -69 -19
-135 -41z"/>
<path d="M3887 3153 c-3 -5 -12 -30 -20 -58 -27 -90 -87 -247 -149 -392 l-61
-143 51 -112 c53 -116 146 -353 176 -445 l17 -51 82 28 c286 97 503 217 636
350 165 165 168 292 12 450 -132 133 -332 245 -609 341 -122 42 -128 43 -135
32z"/>
<path d="M3490 2233 c-25 -48 -87 -157 -137 -242 -51 -85 -90 -157 -88 -159
10 -10 419 59 432 72 10 10 -142 416 -156 416 -3 0 -26 -39 -51 -87z"/>
<path d="M1553 2273 c-24 -57 -120 -324 -128 -354 l-7 -27 114 -21 c115 -22
321 -51 326 -46 1 1 -25 46 -58 99 -34 53 -97 162 -142 241 -44 80 -82 145
-84 145 -3 0 -12 -17 -21 -37z"/>
<path d="M3612 1679 c-74 -15 -216 -38 -318 -50 l-183 -23 -124 -165 c-68 -91
-159 -206 -202 -254 l-77 -89 28 -30 c57 -60 211 -183 312 -250 190 -125 338
-182 472 -183 72 0 91 4 127 24 74 43 123 130 159 286 25 106 25 384 0 530
-23 134 -46 235 -54 234 -4 -1 -67 -14 -140 -30z"/>
<path d="M1345 1624 c-33 -149 -46 -251 -52 -400 -11 -296 46 -492 166 -562
40 -24 56 -27 131 -27 142 1 320 71 519 204 90 61 246 187 289 233 l22 25 -61
69 c-72 80 -233 280 -302 374 l-48 66 -131 12 c-119 12 -456 64 -499 77 -14 5
-20 -7 -34 -71z"/>
<path d="M2280 1581 c0 -6 107 -138 199 -245 l85 -98 21 24 c11 14 52 63 90
109 74 88 165 205 165 211 0 3 -126 4 -280 4 -154 0 -280 -2 -280 -5z"/>
</g>
</svg>
